<svg xmlns:xlink="http://www.w3.org/1999/xlink" width="24" height="24" viewBox="0 0 24 24" fill="none" xmlns="http://www.w3.org/2000/svg"><g clip-path="url(#clip0)" fill="none"><path fill-rule="evenodd" clip-rule="evenodd" d="M21.069 7.5874C20.2774 7.5874 19.6365 8.21102 19.6365 8.98015V14.9421C19.6365 15.7112 20.2774 16.3348 21.069 16.3348C21.8591 16.3348 22.5 15.7112 22.5 14.9421V8.98015C22.5 8.21121 21.8591 7.5874 21.069 7.5874ZM2.9325 7.5874C2.14088 7.5874 1.5 8.21102 1.5 8.98015V14.9421C1.5 15.7112 2.14088 16.3348 2.9325 16.3348C3.72263 16.3348 4.3635 15.7112 4.3635 14.9421V8.98015C4.3635 8.21121 3.72263 7.5874 2.9325 7.5874ZM5.42194 7.5874H5.319V17.8067C5.319 18.618 5.99606 19.2786 6.83119 19.2786H7.9215C7.88381 19.4014 7.86356 19.5298 7.86356 19.6652V22.6075C7.86356 23.3766 8.50594 24.0002 9.29606 24.0002C10.0862 24.0002 10.7286 23.3766 10.7286 22.6075V19.665C10.7286 19.5296 10.7068 19.4012 10.6706 19.2784H13.3298C13.2936 19.4012 13.2731 19.5296 13.2731 19.665V22.6073C13.2731 23.3764 13.914 24 14.7041 24C15.4957 24 16.1381 23.3764 16.1381 22.6073V19.665C16.1381 19.5296 16.1164 19.4012 16.0787 19.2784H17.1705C18.0056 19.2784 18.6812 18.618 18.6812 17.8065V7.5874H5.42194ZM15.2869 2.00927L15.5537 1.61702L15.8205 1.2304L16.4149 0.361148C16.4887 0.253898 16.4584 0.109898 16.3481 0.0393983C16.2394 -0.0326017 16.0901 -0.00297666 16.0191 0.104273L15.1114 1.42652L14.8389 1.8244C13.9762 1.49852 13.0149 1.31646 12 1.31646C10.9866 1.31646 10.0238 1.49852 9.16106 1.8244L8.88994 1.42652L8.62162 1.03559L7.98375 0.104273C7.90988 -0.00297666 7.76194 -0.0311017 7.65169 0.0393983C7.54294 0.109898 7.51256 0.253898 7.58494 0.361148L8.17931 1.2304L8.44613 1.61702L8.71444 2.00927C6.68888 2.92784 5.31881 4.66784 5.31881 6.6589H18.6808C18.681 4.66784 17.3109 2.92802 15.2869 2.00927ZM9.1365 4.8004C8.74069 4.8004 8.42025 4.48859 8.42025 4.10327C8.42025 3.71796 8.74069 3.40765 9.1365 3.40765C9.53231 3.40765 9.85275 3.71815 9.85275 4.10327C9.85275 4.48859 9.53231 4.8004 9.1365 4.8004ZM14.8635 4.8004C14.4677 4.8004 14.1473 4.48859 14.1473 4.10327C14.1473 3.71796 14.4677 3.40765 14.8635 3.40765C15.2593 3.40765 15.5798 3.71815 15.5798 4.10327C15.5798 4.48859 15.2593 4.8004 14.8635 4.8004Z" fill="#999999"></path></g><defs><clipPath id="clip0"><rect width="24" height="24" fill="white"></rect></clipPath></defs></svg>