<svg xmlns:xlink="http://www.w3.org/1999/xlink" width="19" height="24" viewBox="0 0 19 24" fill="none" xmlns="http://www.w3.org/2000/svg"><path d="M11.0348 3.55717C11.7932 2.60636 12.312 1.31273 12.168 0C11.0703 0.0487131 9.69766 0.761198 8.90721 1.69116C8.20783 2.51065 7.58303 3.8538 7.74443 5.11694C8.97748 5.20921 10.2435 4.49321 11.0348 3.55717Z" fill="#999999"></path><path d="M15.0426 13.6091C15.0175 10.8053 17.3325 9.44118 17.4383 9.37769C16.1272 7.46121 14.0951 7.19938 13.3809 7.17851C11.6742 6.99845 10.0186 8.20242 9.14912 8.20242C8.26238 8.20242 6.92348 7.19587 5.48047 7.22549C3.6236 7.25419 1.88648 8.33201 0.933733 10.0058C-1.03247 13.4186 0.433911 18.4338 2.31771 21.1923C3.26006 22.5433 4.36116 24.0518 5.80243 23.9987C7.21243 23.9405 7.73911 23.0975 9.44072 23.0975C11.1266 23.0975 11.6212 23.9987 13.0911 23.9648C14.6044 23.9405 15.5571 22.6077 16.4665 21.2445C17.5555 19.696 17.9928 18.171 18.0102 18.0928C17.9746 18.0806 15.0713 16.9696 15.0426 13.6091Z" fill="#999999"></path></svg>