<svg xmlns:xlink="http://www.w3.org/1999/xlink" width="24" height="24" viewBox="0 0 24 24" fill="none" xmlns="http://www.w3.org/2000/svg"><path fill-rule="evenodd" clip-rule="evenodd" d="M12 24C18.6274 24 24 18.6274 24 12C24 10.6473 23.7762 9.34679 23.3635 8.13362C23.2519 8.17662 23.1307 8.2002 23.004 8.2002H16.3821C17.2655 9.21801 17.8002 10.5467 17.8002 12.0002C17.8002 13.143 17.4697 14.2087 16.899 15.1067L11.7703 23.9978C11.8467 23.9993 11.9233 24 12 24ZM15.335 13.8235C15.3177 13.8481 15.3013 13.8737 15.286 13.9002L15.1925 14.0624C14.5155 15.1082 13.3387 15.8002 12.0002 15.8002C10.625 15.8002 9.42039 15.0697 8.75331 13.9755C8.74126 13.9499 8.72803 13.9246 8.71359 13.8996L8.61805 13.7343C8.35094 13.2144 8.2002 12.6249 8.2002 12.0002C8.2002 9.90151 9.90151 8.2002 12.0002 8.2002C14.0989 8.2002 15.8002 9.90151 15.8002 12.0002C15.8002 12.6609 15.6316 13.2822 15.335 13.8235ZM11.9968 6.2002C9.45992 6.20167 7.30401 7.83181 6.51806 10.1016L3.20559 4.37159C3.14278 4.26294 3.06265 4.17053 2.97071 4.09583C5.17021 1.58528 8.39998 0 12 0C16.5238 0 20.463 2.50327 22.5079 6.2002H12.0002H12C11.9989 6.2002 11.9978 6.2002 11.9968 6.2002ZM6.85937 14.6883L1.72241 5.8021C0.62914 7.61112 0 9.73209 0 12C0 17.8295 4.15676 22.6881 9.66796 23.7735C9.68642 23.6552 9.7266 23.5382 9.79003 23.4282L13.0961 17.6968C12.7412 17.7647 12.3748 17.8002 12.0002 17.8002C9.76701 17.8002 7.82861 16.5381 6.85937 14.6883Z" fill="#999999"></path></svg>