<svg xmlns:xlink="http://www.w3.org/1999/xlink" width="67" height="31" viewBox="0 0 67 31" fill="none" xmlns="http://www.w3.org/2000/svg" class="cl-mb-3 cl-mx-auto"><path fill-rule="evenodd" clip-rule="evenodd" d="M55.8798 28.9043C45.9237 25.0824 25.4395 25.5518 11.0603 27.2448C9.05895 27.4795 8.01625 30.2452 9.74848 30.8319C20.9492 27.2783 43.8887 27.3118 51.9613 28.9713C54.2149 29.3568 55.4762 29.625 55.8798 28.9043ZM45.9573 15.4441C46.815 15.6117 47.7232 15.4776 48.6482 15.1256L48.9845 15.2262L47.9418 15.595L48.665 15.7794L47.6559 16.1146L48.3455 16.3325L47.5382 16.6175C47.3364 16.718 47.1346 16.8186 46.9328 16.8857C47.6055 19.7855 43.2833 24.2611 40.1552 24.1437C39.1461 24.0935 38.2716 22.6016 38.2548 22.1658C38.0025 21.3277 37.9689 20.1376 38.507 18.4949C39.0788 16.7683 39.9029 14.9412 40.8783 13.1309C37.1952 13.6673 32.9739 13.4494 30.1485 12.3095C28.3995 11.1529 28.2649 8.95708 29.3749 8.67212C32.2003 11.3876 37.397 12.3263 41.551 11.9408C42.8628 9.62757 44.3596 7.39818 45.7387 5.55433C46.1255 5.48728 46.63 5.68842 47.0673 6.02367L47.1009 6.0572C47.3196 6.22482 47.5046 6.42597 47.6559 6.64388C49.7582 9.12471 47.9923 11.0691 44.7464 12.209C42.4929 15.8296 40.4074 19.7353 39.9702 22.2161C41.9715 21.7635 44.5614 19.3833 45.1669 17.3047C44.7969 17.288 44.5278 17.1706 44.3596 17.003C43.9224 16.5672 43.8887 15.2765 44.696 14.9748C44.7128 14.9077 44.8473 14.8574 44.9482 14.9077C45.3351 15.0586 45.6882 15.2262 45.9573 15.4441ZM45.4528 11.0356C47.1682 10.3148 48.11 9.20852 47.6223 7.81724C46.9328 8.80622 46.1928 9.89577 45.4528 11.0356ZM57.343 7.38142C57.3262 7.29761 57.3093 7.2138 57.2757 7.12999C57.2589 6.86179 57.1916 6.76122 57.1075 6.76122C56.6534 6.00691 55.7117 5.43699 55.0894 5.53757C52.3817 9.14147 49.2873 14.1702 47.8577 18.5116C46.6805 22.1323 48.2277 23.6074 48.9173 23.7247C49.0518 23.8253 49.22 23.8923 49.3882 23.9091C50.0441 23.0877 51.7931 20.3219 53.3235 19.1151C53.4917 18.981 53.5926 18.8301 53.6262 18.6792L53.1554 18.8469L53.5926 18.3105C53.5758 18.2937 53.5758 18.2769 53.559 18.2769C52.4322 18.9139 50.8345 20.0537 49.5564 21.1936C50.5991 17.7573 53.7271 12.5777 56.418 8.68889C56.2835 10.4657 55.4762 11.857 54.2989 12.8627H54.3326L54.0131 13.0974C53.9458 13.1477 53.8617 13.2147 53.7776 13.265L53.5085 13.4662L54.1139 13.4829L53.3067 14.0696H53.929L53.0881 14.7066L53.6767 14.7233C55.7117 13.4159 57.0907 11.22 57.2757 7.482L57.343 7.38142ZM14.4575 16.8186C13.768 17.64 13.1793 19.2659 12.9271 20.7745C14.592 19.6682 15.9206 18.1261 17.2324 15.9805C17.4342 15.5447 17.6192 15.1424 17.7874 14.8239C18.6115 14.7568 20.1251 16.2822 20.1251 16.8019C19.4188 17.6232 18.847 19.2659 18.5947 20.7745C19.0992 20.3219 19.6542 19.8694 20.2092 19.4503L20.7474 19.2659L20.0578 20.1376L20.7474 19.8694L20.0747 20.6907L20.4951 20.5399C19.6542 21.5959 18.9142 22.719 18.5442 23.1883L18.5274 23.2051C18.4265 23.2051 18.3424 23.1715 18.2583 23.138C17.2829 22.8531 16.072 21.6294 16.0047 21.1098C15.9711 20.8416 15.9543 20.5566 15.9879 20.2717C14.8779 21.4618 13.768 22.5513 12.8766 23.1548V23.1883H12.8093C11.8003 23.0374 10.4212 21.6629 10.3539 21.1098C10.0848 19.1821 11.4303 16.2487 12.1366 14.8239C12.9439 14.7736 14.4743 16.299 14.4575 16.8186ZM37.4139 19.4838C36.8589 19.9029 36.2871 20.3555 35.7993 20.8081C36.0516 19.2827 36.6402 17.64 37.3298 16.8186C37.3298 16.299 35.8162 14.7736 34.9921 14.8407L34.908 14.9915H34.8912C32.9403 16.4498 31.1072 18.5619 29.7281 20.2884C30.014 18.9307 30.5522 17.5394 31.1744 16.8019C31.1744 16.2822 29.6608 14.7568 28.8368 14.8239L28.7527 14.9748H28.7358C26.8186 16.4163 25.0191 18.4781 23.64 20.1878C23.9259 18.8469 24.4473 17.5059 25.0696 16.7851C25.0696 16.2655 23.5559 14.7401 22.7319 14.8071C22.0255 16.2319 20.6801 19.1486 20.9492 21.093C21.0165 21.6462 22.3619 22.9704 23.3541 23.1548L23.3878 23.1715C23.4214 23.1715 23.455 23.1883 23.4887 23.1883C23.4887 23.1548 23.4719 23.1213 23.4719 23.071C24.565 21.7635 25.7759 20.2381 27.2222 19.0312C27.0541 19.7688 26.97 20.4896 27.0541 21.093C27.1382 21.6629 28.5845 23.0877 29.5936 23.1883L29.5767 23.1212C30.6867 21.797 31.9144 20.2549 33.3776 19.0312C33.2094 19.7688 33.1253 20.4896 33.2094 21.093C33.2767 21.6126 34.5044 22.8698 35.4966 23.138C35.5807 23.1715 35.6648 23.1883 35.7489 23.1883C36.1189 22.719 36.8589 21.5791 37.7166 20.5231L37.2961 20.674L37.9688 19.8526L37.2793 20.1208L37.9688 19.2492L37.4139 19.4838ZM59.5629 13.8684C59.9329 16.0308 58.9239 17.4556 56.9562 17.7741C57.6457 16.366 58.5707 15.025 59.5629 13.8684ZM56.7712 18.1764C56.1825 19.4838 55.8294 20.8248 55.8294 22.1155C60.0002 22.2328 64.6251 17.6567 64.8101 12.5442C65.1969 11.7899 66.021 14.0864 66.0882 14.4719C66.2228 15.1256 66.2396 15.8296 66.1051 16.4834C65.2642 20.1208 60.4879 24.5293 56.5525 24.0935C56.4685 24.0767 56.3003 24.0096 56.0985 23.8755V23.9091C50.9186 21.1936 55.123 14.7066 58.4866 11.1697C58.5034 11.1697 58.5202 11.1529 58.537 11.1529L58.5202 11.1194C58.5875 11.1194 58.6548 11.1194 58.7388 11.1362C59.1929 11.1529 59.7311 11.4714 60.1516 11.857C61.0429 12.4939 61.8838 13.3991 61.8838 13.9187C62.3715 17.355 60.1011 19.4 56.7712 18.1764Z" fill="#673AB7"></path><path d="M10.0319 9.59909C13.6092 9.94077 21.8075 9.14112 23.4292 5.82205C21.3428 2.00914 8.60732 2.5675 3.52443 5.24009C0.756201 6.67974 1.13954 8.50295 3.55184 10.1778C1.44705 10.5303 -2.51991 6.5682 2.25847 3.11674C8.51203 -1.40028 25.5841 -1.51094 24.5588 6.14843C23.9622 10.6074 17.5453 12.2028 10.3774 11.9861C9.65637 16.2559 6.30019 22.274 2.45923 23.7702L3.05156 22.9901L2.38647 23.169L3.01474 22.4533L2.38647 22.6967C5.52779 18.6712 6.51506 15.8981 6.30334 9.00471C6.30334 9.00471 8.04667 9.40947 10.0319 9.59909Z" fill="#673AB7"></path></svg>