<svg xmlns:xlink="http://www.w3.org/1999/xlink" xmlns="http://www.w3.org/2000/svg" width="50" height="24" viewBox="0 0 50 24" fill="none">
<path fill-rule="evenodd" clip-rule="evenodd" d="M41.4831 22.4995C34.092 19.5245 18.8854 19.8899 8.21073 21.2077C6.72502 21.3904 5.95096 23.5433 7.23691 24C15.5519 21.2338 32.5813 21.2599 38.5741 22.5517C40.2471 22.8518 41.1834 23.0605 41.4831 22.4995ZM34.117 12.0219C34.7537 12.1524 35.4279 12.048 36.1146 11.774L36.3643 11.8523L35.5902 12.1393L36.1271 12.2829L35.378 12.5438L35.8898 12.7135L35.2906 12.9353C35.1407 13.0136 34.9909 13.0918 34.8411 13.144C35.3405 15.4013 32.1319 18.8852 29.8097 18.7938C29.0606 18.7547 28.4114 17.5934 28.3989 17.2542C28.2116 16.6018 28.1866 15.6754 28.5862 14.3967C29.0106 13.0527 29.6224 11.6305 30.3465 10.2213C27.6123 10.6388 24.4786 10.4692 22.3811 9.58192C21.0827 8.68161 20.9828 6.97232 21.8068 6.7505C23.9043 8.86428 27.7621 9.59497 30.8459 9.29487C31.8197 7.49424 32.9309 5.75885 33.9547 4.32357C34.2418 4.27137 34.6164 4.42795 34.941 4.68891L34.966 4.71501C35.1283 4.84549 35.2656 5.00206 35.378 5.17169C36.9386 7.1028 35.6277 8.61637 33.2181 9.50364C31.5451 12.322 29.997 15.3622 29.6723 17.2933C31.158 16.941 33.0807 15.0882 33.5302 13.4702C33.2555 13.4572 33.0558 13.3659 32.9309 13.2354C32.6063 12.8961 32.5813 11.8914 33.1806 11.6566C33.1931 11.6044 33.293 11.5652 33.3679 11.6044C33.655 11.7218 33.9172 11.8523 34.117 12.0219ZM33.7424 8.59027C35.0159 8.02921 35.7151 7.16804 35.353 6.08505C34.8411 6.85489 34.2918 7.70301 33.7424 8.59027ZM42.5693 5.7458C42.5568 5.68056 42.5443 5.61532 42.5193 5.55008C42.5068 5.34131 42.4569 5.26303 42.3945 5.26303C42.0574 4.67587 41.3582 4.23223 40.8963 4.31052C38.8862 7.11585 36.589 11.0303 35.5278 14.4097C34.6538 17.2281 35.8024 18.3763 36.3143 18.4676C36.4142 18.5459 36.5391 18.5981 36.6639 18.6112C37.1508 17.9718 38.4492 15.8189 39.5854 14.8794C39.7102 14.775 39.7851 14.6576 39.8101 14.5402L39.4605 14.6707L39.7851 14.2531C39.7726 14.2401 39.7726 14.227 39.7601 14.227C38.9237 14.7229 37.7376 15.6101 36.7888 16.4974C37.5628 13.8225 39.885 9.7907 41.8826 6.76355C41.7827 8.14664 41.1834 9.22963 40.3095 10.0125H40.3345L40.0972 10.1952C40.0473 10.2343 39.9849 10.2865 39.9225 10.3257L39.7227 10.4822L40.1721 10.4953L39.5729 10.952H40.0348L39.4106 11.4478L39.8475 11.4608C41.3582 10.4431 42.382 8.7338 42.5193 5.82409L42.5693 5.7458ZM10.7327 13.0918C10.2208 13.7312 9.78384 14.9969 9.59657 16.1712C10.8326 15.31 11.8189 14.1096 12.7927 12.4394C12.9425 12.1002 13.0799 11.787 13.2047 11.5391C13.8165 11.4869 14.9401 12.6743 14.9401 13.0788C14.4158 13.7182 13.9913 14.9969 13.804 16.1712C14.1785 15.8189 14.5905 15.4666 15.0025 15.1404L15.4021 14.9969L14.8902 15.6754L15.4021 15.4666L14.9027 16.1059L15.2148 15.9885C14.5905 16.8105 14.0412 17.6848 13.7665 18.0501L13.7541 18.0631C13.6791 18.0631 13.6167 18.0371 13.5543 18.011C12.8302 17.7891 11.9312 16.8366 11.8813 16.4321C11.8563 16.2234 11.8439 16.0016 11.8688 15.7797C11.0448 16.7062 10.2208 17.5543 9.55911 18.024V18.0501H9.50917C8.76008 17.9327 7.7363 16.8627 7.68636 16.4321C7.48661 14.9316 8.48541 12.6482 9.00977 11.5391C9.60905 11.5 10.7452 12.6874 10.7327 13.0918ZM27.7746 15.1665C27.3626 15.4927 26.9381 15.845 26.5761 16.1973C26.7634 15.0099 27.2003 13.7312 27.7122 13.0918C27.7122 12.6874 26.5886 11.5 25.9768 11.5522L25.9144 11.6696H25.9019C24.4536 12.8048 23.0928 14.4488 22.069 15.7928C22.2813 14.7359 22.6808 13.6529 23.1427 13.0788C23.1427 12.6743 22.0191 11.4869 21.4073 11.5391L21.3449 11.6566H21.3324C19.9091 12.7787 18.5732 14.3836 17.5495 15.7145C17.7617 14.6707 18.1488 13.6268 18.6107 13.0658C18.6107 12.6613 17.487 11.4739 16.8753 11.5261C16.3509 12.6352 15.3521 14.9055 15.5519 16.4191C15.6018 16.8497 16.6006 17.8805 17.3372 18.024L17.3622 18.037C17.3872 18.037 17.4121 18.0501 17.4371 18.0501C17.4371 18.024 17.4246 17.9979 17.4246 17.9588C18.2361 16.941 19.1351 15.7536 20.2088 14.8142C20.0839 15.3883 20.0215 15.9494 20.0839 16.4191C20.1463 16.8627 21.22 17.9718 21.9691 18.0501L21.9567 17.9979C22.7807 16.9671 23.6921 15.7667 24.7782 14.8142C24.6534 15.3883 24.591 15.9494 24.6534 16.4191C24.7033 16.8236 25.6147 17.8022 26.3514 18.011C26.4138 18.0371 26.4762 18.0501 26.5386 18.0501C26.8133 17.6848 27.3626 16.7975 27.9994 15.9755L27.6872 16.0929L28.1866 15.4535L27.6748 15.6623L28.1866 14.9838L27.7746 15.1665ZM44.2173 10.7954C44.4919 12.4786 43.7428 13.5877 42.2821 13.8356C42.794 12.7395 43.4807 11.6957 44.2173 10.7954ZM42.1448 14.1487C41.7078 15.1665 41.4456 16.2103 41.4456 17.215C44.5419 17.3064 47.9752 13.7442 48.1126 9.7646C48.3997 9.17744 49.0115 10.965 49.0614 11.2651C49.1613 11.774 49.1738 12.322 49.0739 12.8309C48.4497 15.6623 44.9039 19.0939 41.9825 18.7547C41.92 18.7416 41.7952 18.6894 41.6454 18.5851V18.6112C37.8 16.4974 40.9212 11.4478 43.4182 8.69466C43.4307 8.69466 43.4432 8.68161 43.4557 8.68161L43.4432 8.65552C43.4931 8.65552 43.5431 8.65551 43.6055 8.66856C43.9426 8.68161 44.3421 8.92952 44.6542 9.22963C45.3159 9.72545 45.9402 10.43 45.9402 10.8345C46.3022 13.5094 44.6168 15.1012 42.1448 14.1487Z" fill="white" fill-opacity="0.54"/>
<path d="M7.44733 7.47207C10.1029 7.73803 16.1891 7.11558 17.393 4.53196C15.8441 1.56394 6.38975 1.99858 2.6164 4.07896C0.561375 5.1996 0.845949 6.61882 2.63675 7.92255C1.07424 8.19695 -1.87069 5.11278 1.67661 2.42611C6.31901 -1.08999 18.9927 -1.17614 18.2315 4.78602C17.7886 8.25698 13.025 9.49883 7.70377 9.33018C7.16852 12.6538 4.67702 17.3384 1.82564 18.503L2.26536 17.8958L1.77163 18.035L2.23803 17.478L1.77163 17.6674C4.10362 14.5339 4.83653 12.3753 4.67936 7.00939C4.67936 7.00939 5.97354 7.32447 7.44733 7.47207Z" fill="white" fill-opacity="0.54"/>
</svg>