<svg xmlns:xlink="http://www.w3.org/1999/xlink" xmlns="http://www.w3.org/2000/svg" width="15" height="20" viewBox="0 0 15 20" fill="none">
<path d="M5.31023 19.2912L4.92612 19.6113L5.31022 19.2912L5.2087 19.1694C4.58318 18.4188 3.41149 18.4814 2.86949 19.2944C2.78385 19.4228 2.63967 19.5 2.48528 19.5H1.95416C1.15105 19.5 0.5 18.849 0.5 18.0458V1.8541C0.5 1.10625 1.10625 0.5 1.8541 0.5H2.42444C2.5878 0.5 2.73713 0.592293 2.81018 0.738401C3.31004 1.73812 4.71168 1.80472 5.30407 0.856889L5.38388 0.729184C5.47161 0.588824 5.63134 0.5 5.80209 0.5C5.97514 0.5 6.13559 0.594251 6.2177 0.740214C6.78016 1.74015 8.21984 1.74015 8.7823 0.740213C8.86441 0.594252 9.02486 0.5 9.19791 0.5C9.36866 0.5 9.52839 0.588823 9.61612 0.729185L9.69593 0.85689C10.2883 1.80472 11.69 1.73812 12.1898 0.738401L11.7426 0.514794L12.1898 0.7384C12.2629 0.592294 12.4122 0.5 12.5756 0.5H13.1459C13.8937 0.5 14.5 1.10625 14.5 1.8541V18.0458C14.5 18.8489 13.8489 19.5 13.0458 19.5H12.5147C12.3603 19.5 12.2162 19.4228 12.1305 19.2944C11.5885 18.4814 10.4168 18.4188 9.7913 19.1694L9.68977 19.2912C9.57955 19.4235 9.41626 19.5 9.24407 19.5H9.13636C8.97183 19.5 8.8169 19.4225 8.71818 19.2909C8.10909 18.4788 6.89091 18.4788 6.28182 19.2909C6.1831 19.4225 6.02817 19.5 5.86364 19.5H5.75592C5.58374 19.5 5.42045 19.4235 5.31023 19.2912Z" stroke="#37474F" stroke-linecap="round"/>
<rect x="3" y="6" width="5" height="1" rx="0.5" fill="#37474F"/>
<rect x="3" y="8" width="9" height="1" rx="0.5" fill="#37474F"/>
<rect x="3" y="10" width="7" height="1" rx="0.5" fill="#37474F"/>
<rect x="3" y="12" width="9" height="1" rx="0.5" fill="#37474F"/>
<rect x="3" y="14" width="4" height="1" rx="0.5" fill="#37474F"/>
</svg>