<svg xmlns:xlink="http://www.w3.org/1999/xlink" xmlns="http://www.w3.org/2000/svg" width="19" height="19" viewBox="0 0 19 19" fill="none">
<rect x="9" y="2" width="1" height="8" rx="0.5" fill="#37474F"/>
<rect x="15" y="9" width="1" height="6" rx="0.5" transform="rotate(90 15 9)" fill="#37474F"/>
<path fill-rule="evenodd" clip-rule="evenodd" d="M8 0.118896C3.48106 0.839122 0 4.74616 0 9.50371C0 14.2592 3.49833 18.1618 8 18.8812V17.9694C4.00783 17.2416 0.95 13.6704 0.95 9.50371C0.95 5.33699 4.00783 1.80628 8 1.08734V0.118896Z" fill="#37474F"/>
<circle cx="9.5" cy="0.5" r="0.5" fill="#37474F"/>
<circle cx="18.5" cy="9.5" r="0.5" transform="rotate(90 18.5 9.5)" fill="#37474F"/>
<circle cx="11.8291" cy="0.806708" r="0.5" transform="rotate(15 11.8291 0.806708)" fill="#37474F"/>
<circle cx="18.1933" cy="11.8294" r="0.5" transform="rotate(105 18.1933 11.8294)" fill="#37474F"/>
<circle cx="13.9999" cy="1.70596" r="0.5" transform="rotate(30 13.9999 1.70596)" fill="#37474F"/>
<circle cx="17.294" cy="13.9999" r="0.5" transform="rotate(120 17.294 13.9999)" fill="#37474F"/>
<circle cx="15.8643" cy="3.13606" r="0.5" transform="rotate(45 15.8643 3.13606)" fill="#37474F"/>
<circle cx="15.8642" cy="15.864" r="0.5" transform="rotate(135 15.8642 15.864)" fill="#37474F"/>
<circle cx="17.2945" cy="5.00015" r="0.5" transform="rotate(60 17.2945 5.00015)" fill="#37474F"/>
<circle cx="14.0001" cy="17.2943" r="0.5" transform="rotate(150 14.0001 17.2943)" fill="#37474F"/>
<circle cx="18.1933" cy="7.17072" r="0.5" transform="rotate(75 18.1933 7.17072)" fill="#37474F"/>
<circle cx="11.8295" cy="18.1933" r="0.5" transform="rotate(165 11.8295 18.1933)" fill="#37474F"/>
<circle cx="9.5" cy="18.5" r="0.5" transform="rotate(-180 9.5 18.5)" fill="#37474F"/>
</svg>