<svg xmlns:xlink="http://www.w3.org/1999/xlink" xmlns="http://www.w3.org/2000/svg" width="20" height="18" viewBox="0 0 20 18" fill="none">
<path d="M0 0.5C0 0.223857 0.223858 0 0.5 0C0.776142 0 1 0.223858 1 0.5V17.5C1 17.7761 0.776142 18 0.5 18C0.223858 18 0 17.7761 0 17.5V0.5Z" fill="#37474F"/>
<path d="M3 11.5C3 11.2239 3.22386 11 3.5 11C3.77614 11 4 11.2239 4 11.5V14.5C4 14.7761 3.77614 15 3.5 15C3.22386 15 3 14.7761 3 14.5V11.5Z" fill="#37474F"/>
<path d="M5 9.5C5 9.22386 5.22386 9 5.5 9C5.77614 9 6 9.22386 6 9.5V14.5C6 14.7761 5.77614 15 5.5 15C5.22386 15 5 14.7761 5 14.5V9.5Z" fill="#37474F"/>
<path d="M7 9.5C7 9.22386 7.22386 9 7.5 9C7.77614 9 8 9.22386 8 9.5V14.5C8 14.7761 7.77614 15 7.5 15C7.22386 15 7 14.7761 7 14.5V9.5Z" fill="#37474F"/>
<path d="M9 11.5C9 11.2239 9.22386 11 9.5 11C9.77614 11 10 11.2239 10 11.5V14.5C10 14.7761 9.77614 15 9.5 15C9.22386 15 9 14.7761 9 14.5V11.5Z" fill="#37474F"/>
<path d="M11 11.5C11 11.2239 11.2239 11 11.5 11C11.7761 11 12 11.2239 12 11.5V14.5C12 14.7761 11.7761 15 11.5 15C11.2239 15 11 14.7761 11 14.5V11.5Z" fill="#37474F"/>
<path d="M13 9.5C13 9.22386 13.2239 9 13.5 9C13.7761 9 14 9.22386 14 9.5V14.5C14 14.7761 13.7761 15 13.5 15C13.2239 15 13 14.7761 13 14.5V9.5Z" fill="#37474F"/>
<path d="M15 7.5C15 7.22386 15.2239 7 15.5 7C15.7761 7 16 7.22386 16 7.5V14.5C16 14.7761 15.7761 15 15.5 15C15.2239 15 15 14.7761 15 14.5V7.5Z" fill="#37474F"/>
<path d="M17 5.5C17 5.22386 17.2239 5 17.5 5C17.7761 5 18 5.22386 18 5.5V14.5C18 14.7761 17.7761 15 17.5 15C17.2239 15 17 14.7761 17 14.5V5.5Z" fill="#37474F"/>
<path d="M6.3536 5.06069C6.15834 4.86543 6.15834 4.54885 6.3536 4.35359C6.54886 4.15832 6.86545 4.15832 7.06071 4.35359L11.204 8.49687C11.3992 8.69213 11.3992 9.00871 11.204 9.20397C11.0087 9.39923 10.6921 9.39923 10.4969 9.20397L6.3536 5.06069Z" fill="#37474F"/>
<path d="M7.04986 5.06065C7.24512 4.86538 7.24512 4.5488 7.04986 4.35354C6.8546 4.15828 6.53801 4.15828 6.34275 4.35354L2.84176 7.85453C2.6465 8.04979 2.6465 8.36638 2.84176 8.56164C3.03702 8.7569 3.3536 8.7569 3.54887 8.56164L7.04986 5.06065Z" fill="#37474F"/>
<path d="M18 2.49995C18.1953 2.30469 18.1953 1.98811 18 1.79284C17.8047 1.59758 17.4882 1.59758 17.2929 1.79284L10.505 8.49682C10.3097 8.69208 10.3097 9.00866 10.505 9.20393C10.7002 9.39919 11.0168 9.39919 11.2121 9.20393L18 2.49995Z" fill="#37474F"/>
<path d="M0.5 18C0.223858 18 0 17.7761 0 17.5C-1.20706e-08 17.2239 0.223858 17 0.5 17H19.5C19.7761 17 20 17.2239 20 17.5C20 17.7761 19.7761 18 19.5 18H0.5Z" fill="#37474F"/>
</svg>